<?xml version="1.0" encoding="UTF-8"?>
<svg width="193px" height="148px" viewBox="0 0 193 148" version="1.1" xmlns="http://www.w3.org/2000/svg" xmlns:xlink="http://www.w3.org/1999/xlink">
    <!-- Generator: Sketch 50.2 (55047) - http://www.bohemiancoding.com/sketch -->
    <title>quote</title>
    <desc>Created with Sketch.</desc>
    <defs></defs>
    <g id="Symbols" stroke="none" stroke-width="1" fill="none" fill-rule="evenodd">
        <g id="quote" fill="#24890D" fill-rule="nonzero">
            <g id="quote">
                <g>
                    <path d="M76.6284205,136.651765 C58.4643027,154.779932 27.5305519,149.986734 13.0470307,130.791896 C-4.09481868,108.121922 -7.51754135,65.155546 22.3458485,26.7209313 C29.3868449,17.6590603 35.1721528,13.8314557 39.4341461,10.7983555 C44.1383869,7.45052447 47.426192,5.16505473 58.3771077,0 L85.5086862,4.10782519e-15 C55.8171254,15.443954 33.6248731,36.383482 30.4800439,71.490199 C43.8765429,71.490199 54.9913029,70.9693225 64.8911309,74.7717243 C76.1621672,79.1008121 83.0082973,87.1294424 85.8180436,96.3359681 C90.2751638,110.750873 88.1145202,125.188388 76.6284205,136.651765 Z" id="Shape"></path>
                </g>
                <g transform="translate(105.000000, 0.000000)">
                    <path d="M76.6284205,136.651765 C58.4643027,154.779932 27.5305519,149.986734 13.0470307,130.791896 C-4.09481868,108.121922 -7.51754135,65.155546 22.3458485,26.7209313 C29.3868449,17.6590603 35.1721528,13.8314557 39.4341461,10.7983555 C44.1383869,7.45052447 47.426192,5.16505473 58.3771077,0 L85.5086862,4.10782519e-15 C55.8171254,15.443954 33.6248731,36.383482 30.4800439,71.490199 C43.8765429,71.490199 54.9913029,70.9693225 64.8911309,74.7717243 C76.1621672,79.1008121 83.0082973,87.1294424 85.8180436,96.3359681 C90.2751638,110.750873 88.1145202,125.188388 76.6284205,136.651765 Z" id="Shape"></path>
                </g>
            </g>
        </g>
    </g>
</svg>
